<svg xmlns="http://www.w3.org/2000/svg" width="48" height="48" viewBox="0 0 48 48" fill="none">
  <circle cx="24" cy="24" r="22" fill="#009FCE" opacity="0.1"/>
  <path d="M24 10C16.27 10 10 16.27 10 24C10 31.73 16.27 38 24 38C31.73 38 38 31.73 38 24C38 16.27 31.73 10 24 10Z" fill="#009FCE" opacity="0.2" stroke="#009FCE" stroke-width="2" stroke-linecap="round" stroke-linejoin="round"/>
  <path d="M10 24H38" stroke="#009FCE" stroke-width="2" stroke-linecap="round" stroke-linejoin="round"/>
  <path d="M24 10C27.87 14.5 30 19.11 30 24C30 28.89 27.87 33.5 24 38C20.13 33.5 18 28.89 18 24C18 19.11 20.13 14.5 24 10Z" stroke="#009FCE" stroke-width="2" stroke-linecap="round" stroke-linejoin="round"/>
</svg>