<svg xmlns="http://www.w3.org/2000/svg" width="48" height="48" viewBox="0 0 48 48" fill="none">
  <circle cx="24" cy="24" r="22" fill="#009FCE" opacity="0.1"/>
  <path d="M38 20L28 30L20 22L10 32" stroke="#009FCE" stroke-width="2" stroke-linecap="round" stroke-linejoin="round"/>
  <path d="M30 20H38V28" stroke="#009FCE" stroke-width="2" stroke-linecap="round" stroke-linejoin="round"/>
  <path d="M14 36C15.1046 36 16 35.1046 16 34C16 32.8954 15.1046 32 14 32C12.8954 32 12 32.8954 12 34C12 35.1046 12.8954 36 14 36Z" fill="#009FCE"/>
  <path d="M24 26C25.1046 26 26 25.1046 26 24C26 22.8954 25.1046 22 24 22C22.8954 22 22 22.8954 22 24C22 25.1046 22.8954 26 24 26Z" fill="#009FCE"/>
  <path d="M34 16C35.1046 16 36 15.1046 36 14C36 12.8954 35.1046 12 34 12C32.8954 12 32 12.8954 32 14C32 15.1046 32.8954 16 34 16Z" fill="#009FCE"/>
</svg>