<svg xmlns="http://www.w3.org/2000/svg" width="1920" height="600" viewBox="0 0 1920 600" fill="none">
  <rect width="1920" height="600" fill="#009FCE"/>
  <path d="M0 0H1920V600H0V0Z" fill="url(#paint0_linear)"/>
  <path d="M0 400C200 450 400 350 600 400C800 450 1000 500 1200 450C1400 400 1600 350 1800 400C1900 425 1920 450 1920 450V600H0V400Z" fill="#002B4A" fill-opacity="0.5"/>
  <path d="M0 450C200 500 400 400 600 450C800 500 1000 550 1200 500C1400 450 1600 400 1800 450C1900 475 1920 500 1920 500V600H0V450Z" fill="#002B4A" fill-opacity="0.7"/>
  <defs>
    <linearGradient id="paint0_linear" x1="960" y1="0" x2="960" y2="600" gradientUnits="userSpaceOnUse">
      <stop stop-color="#009FCE" stop-opacity="0.1"/>
      <stop offset="1" stop-color="#002B4A" stop-opacity="0.8"/>
    </linearGradient>
  </defs>
</svg>