<?xml version="1.0" encoding="UTF-8"?>
<svg version="1.1" xmlns="http://www.w3.org/2000/svg" width="32" height="32">
<path d="M0 0 C7.92 0 15.84 0 24 0 C24 5.28 24 10.56 24 16 C16.08 16 8.16 16 0 16 C0 10.72 0 5.44 0 0 Z " fill="#083156" transform="translate(4,8)"/>
<path d="M0 0 C1.8871875 0.00773438 1.8871875 0.00773438 3.8125 0.015625 C5.070625 0.01046875 6.32875 0.0053125 7.625 0 C10.8125 0.265625 10.8125 0.265625 12.8125 2.265625 C13.0625 5.265625 13.0625 5.265625 12.8125 8.265625 C10.8125 10.265625 10.8125 10.265625 7.625 10.53125 C5.7378125 10.52351563 5.7378125 10.52351563 3.8125 10.515625 C2.554375 10.52078125 1.29625 10.5259375 0 10.53125 C-3.1875 10.265625 -3.1875 10.265625 -5.1875 8.265625 C-5.4375 5.265625 -5.4375 5.265625 -5.1875 2.265625 C-3.1875 0.265625 -3.1875 0.265625 0 0 Z " fill="#F4B783" transform="translate(12.1875,10.734375)"/>
<path d="M0 0 C2.01822917 0.06510417 4.03645833 0.13020833 6.0546875 0.1953125 C6.3846875 1.5153125 6.7146875 2.8353125 7.0546875 4.1953125 C3.7546875 4.1953125 0.4546875 4.1953125 -2.9453125 4.1953125 C-2.9453125 4.8553125 -2.9453125 5.5153125 -2.9453125 6.1953125 C0.3546875 6.1953125 3.6546875 6.1953125 7.0546875 6.1953125 C6.0546875 9.1953125 6.0546875 9.1953125 4.0546875 10.1953125 C1.0546875 10.3828125 1.0546875 10.3828125 -1.9453125 10.1953125 C-3.9453125 8.1953125 -3.9453125 8.1953125 -4.1953125 5.1953125 C-3.91874762 1.87653392 -3.53131274 0.35454947 0 0 Z " fill="#DA3C09" transform="translate(10.9453125,10.8046875)"/>
<path d="M0 0 C5.61 0 11.22 0 17 0 C13.50424777 1.74787612 11.99581693 2.27635802 8.3125 2.5625 C5.35818712 2.59506307 5.35818712 2.59506307 3 4 C2.74994614 6.95817107 2.74994614 6.95817107 3 10 C5.10540926 12.31622777 5.10540926 12.31622777 9 14 C6.03 14 3.06 14 0 14 C0 9.38 0 4.76 0 0 Z " fill="#13355F" transform="translate(5,9)"/>
<path d="M0 0 C1.6875 2.53125 1.6875 2.53125 3.375 5.0625 C5.10201244 7.38260423 5.10201244 7.38260423 9 9 C6.03 9 3.06 9 0 9 C0 6.03 0 3.06 0 0 Z " fill="#053565" transform="translate(5,14)"/>
<path d="M0 0 C2.31 0 4.62 0 7 0 C6.34 1.32 5.68 2.64 5 4 C3.02 4 1.04 4 -1 4 C-0.67 2.68 -0.34 1.36 0 0 Z " fill="#F5BE3C" transform="translate(18,17)"/>
<path d="M0 0 C1.98 0 3.96 0 6 0 C6.66 1.32 7.32 2.64 8 4 C5.69 4 3.38 4 1 4 C0.67 2.68 0.34 1.36 0 0 Z " fill="#F5BE3C" transform="translate(17,11)"/>
<path d="M0 0 C-3.99560608 2.83022097 -7.42737323 1.76210446 -12 1 C-12 0.67 -12 0.34 -12 0 C-7.74433453 -1.16063604 -4.3164922 -0.76173392 0 0 Z " fill="#424853" transform="translate(22,21)"/>
</svg>
