<?xml version="1.0" encoding="UTF-8"?>
<svg version="1.1" xmlns="http://www.w3.org/2000/svg" width="147" height="75">
<path d="M0 0 C9.09485237 6.87789864 13.81170221 13.98269988 16.28515625 25.19921875 C17.52493222 36.41981745 15.70295532 45.79502237 9.09765625 55.01171875 C3.3380108 61.8936934 -3.78703943 66.49621278 -12.83203125 67.4140625 C-19.38772174 67.69761313 -25.70841655 66.84487469 -30.765625 62.39453125 C-35.87247793 56.79073818 -38.23065196 52.17582717 -38.02734375 44.5390625 C-37.30847368 39.15652286 -34.82284628 34.89931401 -30.77734375 31.32421875 C-28.09437794 29.462569 -25.80594645 28.19928139 -22.71484375 27.19921875 C-23.27816406 27.37453125 -23.84148437 27.54984375 -24.421875 27.73046875 C-26.96092071 28.24952409 -28.84686901 28.07092417 -31.40234375 27.69921875 C-32.83469358 27.49292287 -34.27245403 27.31624834 -35.71484375 27.19921875 C-36.04484375 27.52921875 -36.37484375 27.85921875 -36.71484375 28.19921875 C-38.71442739 28.24002658 -40.71529629 28.24176231 -42.71484375 28.19921875 C-42.38484375 28.85921875 -42.05484375 29.51921875 -41.71484375 30.19921875 C-41.15417429 36.08624804 -41.15417429 36.08624804 -41.71484375 38.19921875 C-44.4353608 40.43993552 -46.1178762 41.17699123 -49.65234375 41.30859375 C-50.66296875 41.19 -51.67359375 41.07140625 -52.71484375 40.94921875 C-53.72546875 40.8409375 -54.73609375 40.73265625 -55.77734375 40.62109375 C-57.67994669 40.34784758 -59.57571161 40.01895155 -61.45703125 39.625 C-63.93777063 39.15717891 -65.32745246 39.48300136 -67.71484375 40.19921875 C-70.71484375 40.19921875 -70.71484375 40.19921875 -73.08984375 39.63671875 C-75.94248284 39.1612789 -77.93481742 39.48435484 -80.71484375 40.19921875 C-80.71484375 38.21921875 -80.71484375 36.23921875 -80.71484375 34.19921875 C-81.37484375 34.19921875 -82.03484375 34.19921875 -82.71484375 34.19921875 C-82.71484375 36.17921875 -82.71484375 38.15921875 -82.71484375 40.19921875 C-84.03484375 40.19921875 -85.35484375 40.19921875 -86.71484375 40.19921875 C-86.71484375 38.21921875 -86.71484375 36.23921875 -86.71484375 34.19921875 C-87.37484375 34.19921875 -88.03484375 34.19921875 -88.71484375 34.19921875 C-89.04484375 35.84921875 -89.37484375 37.49921875 -89.71484375 39.19921875 C-94.4404692 39.97074944 -98.92848115 40.293069 -103.71484375 40.19921875 C-104.37484375 40.19921875 -105.03484375 40.19921875 -105.71484375 40.19921875 C-107.35453125 39.92078125 -107.35453125 39.92078125 -109.02734375 39.63671875 C-112.35292533 39.24215822 -114.52799141 39.3300772 -117.71484375 40.19921875 C-118.70484375 36.73421875 -118.70484375 36.73421875 -119.71484375 33.19921875 C-118.52734375 31.63671875 -118.52734375 31.63671875 -116.71484375 30.19921875 C-114.33984375 30.57421875 -114.33984375 30.57421875 -111.71484375 31.19921875 C-110.53921875 30.95171875 -110.53921875 30.95171875 -109.33984375 30.69921875 C-105.95028375 30.05358827 -103.08919595 30.60374483 -99.71484375 31.19921875 C-99.71484375 32.84921875 -99.71484375 34.49921875 -99.71484375 36.19921875 C-99.05484375 36.19921875 -98.39484375 36.19921875 -97.71484375 36.19921875 C-97.71484375 34.54921875 -97.71484375 32.89921875 -97.71484375 31.19921875 C-96.74659668 31.20707397 -96.74659668 31.20707397 -95.75878906 31.21508789 C-92.8274839 31.23590532 -89.89619432 31.24889409 -86.96484375 31.26171875 C-85.9490625 31.27009766 -84.93328125 31.27847656 -83.88671875 31.28710938 C-82.90703125 31.29033203 -81.92734375 31.29355469 -80.91796875 31.296875 C-80.01723633 31.30211182 -79.11650391 31.30734863 -78.18847656 31.31274414 C-75.87476508 31.20655821 -73.94069309 30.79633174 -71.71484375 30.19921875 C-69.63671875 30.35546875 -69.63671875 30.35546875 -67.46484375 30.69921875 C-62.98814634 31.28571808 -59.1611544 30.92679686 -54.71484375 30.19921875 C-54.71484375 29.20921875 -54.71484375 28.21921875 -54.71484375 27.19921875 C-55.70484375 27.69421875 -55.70484375 27.69421875 -56.71484375 28.19921875 C-60.3849965 28.33698725 -64.04095723 28.24193836 -67.71484375 28.19921875 C-67.71484375 23.57921875 -67.71484375 18.95921875 -67.71484375 14.19921875 C-65.14322917 13.97135417 -62.57161458 13.74348958 -60 13.515625 C-57.75324643 13.43876899 -57.75324643 13.43876899 -56.71484375 12.19921875 C-53.77734375 12.01171875 -53.77734375 12.01171875 -50.71484375 12.19921875 C-49.72484375 13.18921875 -49.72484375 13.18921875 -48.71484375 14.19921875 C-46.38297426 14.62457161 -46.38297426 14.62457161 -43.77734375 14.76171875 C-40.80413228 14.9762804 -38.56426301 15.24941233 -35.71484375 16.19921875 C-35.21984375 15.70421875 -35.21984375 15.70421875 -34.71484375 15.19921875 C-33.09133882 15.12648107 -31.46483907 15.11552316 -29.83984375 15.13671875 C-28.51339844 15.15025391 -28.51339844 15.15025391 -27.16015625 15.1640625 C-26.35320312 15.17566406 -25.54625 15.18726562 -24.71484375 15.19921875 C-21.30385207 15.19921875 -18.08396061 14.70776469 -14.71484375 14.19921875 C-14.71484375 13.53921875 -14.71484375 12.87921875 -14.71484375 12.19921875 C-21.37225764 6.76459517 -27.46634488 4.78430556 -36.0703125 4.9296875 C-40.47751533 5.37887065 -44.55807545 6.71339519 -48.71484375 8.19921875 C-48.71484375 8.85921875 -48.71484375 9.51921875 -48.71484375 10.19921875 C-54.92199275 10.53174459 -59.01360059 9.699764 -64.71484375 7.19921875 C-65.71484375 6.19921875 -65.71484375 6.19921875 -66.02734375 2.32421875 C-65.97525013 -0.57739571 -65.94621767 -1.49536768 -64.15234375 -3.86328125 C-60.58894675 -5.23381856 -58.35143685 -4.85869924 -54.71484375 -3.80078125 C-52.90234375 -1.42578125 -52.90234375 -1.42578125 -51.71484375 1.19921875 C-50.72484375 2.68421875 -50.72484375 2.68421875 -49.71484375 4.19921875 C-48.78865234 3.49345703 -48.78865234 3.49345703 -47.84375 2.7734375 C-33.6691373 -7.64716818 -15.26010585 -10.12217093 0 0 Z M-60.71484375 19.19921875 C-60.38484375 20.51921875 -60.05484375 21.83921875 -59.71484375 23.19921875 C-59.71484375 21.87921875 -59.71484375 20.55921875 -59.71484375 19.19921875 C-60.04484375 19.19921875 -60.37484375 19.19921875 -60.71484375 19.19921875 Z M-30.71484375 19.19921875 C-31.04484375 20.51921875 -31.37484375 21.83921875 -31.71484375 23.19921875 C-30.39484375 22.86921875 -29.07484375 22.53921875 -27.71484375 22.19921875 C-28.04484375 21.20921875 -28.37484375 20.21921875 -28.71484375 19.19921875 C-29.37484375 19.19921875 -30.03484375 19.19921875 -30.71484375 19.19921875 Z M-14.71484375 24.19921875 C-14.71484375 25.18921875 -14.71484375 26.17921875 -14.71484375 27.19921875 C-11.74484375 28.18921875 -8.77484375 29.17921875 -5.71484375 30.19921875 C-6.04484375 27.55921875 -6.37484375 24.91921875 -6.71484375 22.19921875 C-9.59880112 22.19921875 -12.0096219 23.25827202 -14.71484375 24.19921875 Z M-108.71484375 34.19921875 C-107.71484375 36.19921875 -107.71484375 36.19921875 -107.71484375 36.19921875 Z M-72.71484375 34.19921875 C-71.71484375 36.19921875 -71.71484375 36.19921875 -71.71484375 36.19921875 Z " fill="#19A5D0" transform="translate(122.71484375,7.80078125)"/>
<path d="M0 0 C3.0625 0.1875 3.0625 0.1875 5.0625 2.1875 C7.39436949 2.61285286 7.39436949 2.61285286 10 2.75 C12.97321147 2.96456165 15.21308074 3.23769358 18.0625 4.1875 C18.3925 3.8575 18.7225 3.5275 19.0625 3.1875 C21.2421875 2.984375 21.2421875 2.984375 23.9375 2.9375 C24.82179688 2.91171875 25.70609375 2.8859375 26.6171875 2.859375 C29.0625 3.1875 29.0625 3.1875 30.859375 4.515625 C32.72353405 7.10607979 32.4492669 9.09336479 32.0625 12.1875 C30.51743534 14.22417615 29.34103844 15.04823078 27.0625 16.1875 C25.53666563 16.07551216 24.01490039 15.90148272 22.5 15.6875 C21.02601221 15.47996252 19.54648715 15.30366338 18.0625 15.1875 C17.7325 15.5175 17.4025 15.8475 17.0625 16.1875 C15.06291636 16.22830783 13.06204746 16.23004356 11.0625 16.1875 C11.5575 17.1775 11.5575 17.1775 12.0625 18.1875 C12.62316946 24.07452929 12.62316946 24.07452929 12.0625 26.1875 C9.34198295 28.42821677 7.65946755 29.16527248 4.125 29.296875 C3.114375 29.17828125 2.10375 29.0596875 1.0625 28.9375 C0.051875 28.82921875 -0.95875 28.7209375 -2 28.609375 C-3.90260294 28.33612883 -5.79836786 28.0072328 -7.6796875 27.61328125 C-10.16042688 27.14546016 -11.55010871 27.47128261 -13.9375 28.1875 C-16.9375 28.1875 -16.9375 28.1875 -19.3125 27.625 C-22.16513909 27.14956015 -24.15747367 27.47263609 -26.9375 28.1875 C-26.9375 26.2075 -26.9375 24.2275 -26.9375 22.1875 C-27.5975 22.1875 -28.2575 22.1875 -28.9375 22.1875 C-28.9375 24.1675 -28.9375 26.1475 -28.9375 28.1875 C-30.2575 28.1875 -31.5775 28.1875 -32.9375 28.1875 C-32.9375 26.2075 -32.9375 24.2275 -32.9375 22.1875 C-33.5975 22.1875 -34.2575 22.1875 -34.9375 22.1875 C-35.2675 23.8375 -35.5975 25.4875 -35.9375 27.1875 C-40.66312545 27.95903069 -45.1511374 28.28135025 -49.9375 28.1875 C-50.5975 28.1875 -51.2575 28.1875 -51.9375 28.1875 C-53.030625 28.001875 -54.12375 27.81625 -55.25 27.625 C-58.57558158 27.23043947 -60.75064766 27.31835845 -63.9375 28.1875 C-64.5975 25.8775 -65.2575 23.5675 -65.9375 21.1875 C-64.75 19.625 -64.75 19.625 -62.9375 18.1875 C-60.5625 18.5625 -60.5625 18.5625 -57.9375 19.1875 C-56.761875 18.94 -56.761875 18.94 -55.5625 18.6875 C-52.17294 18.04186952 -49.3118522 18.59202608 -45.9375 19.1875 C-45.9375 20.8375 -45.9375 22.4875 -45.9375 24.1875 C-45.2775 24.1875 -44.6175 24.1875 -43.9375 24.1875 C-43.9375 22.5375 -43.9375 20.8875 -43.9375 19.1875 C-42.96925293 19.19535522 -42.96925293 19.19535522 -41.98144531 19.20336914 C-39.05014015 19.22418657 -36.11885057 19.23717534 -33.1875 19.25 C-32.17171875 19.25837891 -31.1559375 19.26675781 -30.109375 19.27539062 C-29.1296875 19.27861328 -28.15 19.28183594 -27.140625 19.28515625 C-25.78952637 19.29301147 -25.78952637 19.29301147 -24.41113281 19.30102539 C-22.09742133 19.19483946 -20.16334934 18.78461299 -17.9375 18.1875 C-15.859375 18.34375 -15.859375 18.34375 -13.6875 18.6875 C-9.21080259 19.27399933 -5.38381065 18.91507811 -0.9375 18.1875 C-0.9375 17.1975 -0.9375 16.2075 -0.9375 15.1875 C-1.5975 15.5175 -2.2575 15.8475 -2.9375 16.1875 C-6.60765275 16.3252685 -10.26361348 16.23021961 -13.9375 16.1875 C-13.9375 11.5675 -13.9375 6.9475 -13.9375 2.1875 C-10.08007812 1.84570312 -10.08007812 1.84570312 -6.22265625 1.50390625 C-3.30052679 1.09930371 -3.15269023 0.20123555 0 0 Z M-6.9375 7.1875 C-6.6075 8.5075 -6.2775 9.8275 -5.9375 11.1875 C-5.9375 9.8675 -5.9375 8.5475 -5.9375 7.1875 C-6.2675 7.1875 -6.5975 7.1875 -6.9375 7.1875 Z M23.0625 7.1875 C22.7325 8.5075 22.4025 9.8275 22.0625 11.1875 C23.3825 10.8575 24.7025 10.5275 26.0625 10.1875 C25.7325 9.1975 25.4025 8.2075 25.0625 7.1875 C24.4025 7.1875 23.7425 7.1875 23.0625 7.1875 Z M-54.9375 22.1875 C-53.9375 24.1875 -53.9375 24.1875 -53.9375 24.1875 Z M-18.9375 22.1875 C-17.9375 24.1875 -17.9375 24.1875 -17.9375 24.1875 Z " fill="#EA969E" transform="translate(68.9375,19.8125)"/>
<path d="M0 0 C0.96228516 0.03544922 1.92457031 0.07089844 2.91601562 0.10742188 C3.83447266 0.15060547 4.75292969 0.19378906 5.69921875 0.23828125 C6.95545044 0.29495972 6.95545044 0.29495972 8.23706055 0.3527832 C10.3125 0.6875 10.3125 0.6875 12.3125 2.6875 C12.02519945 5.02694736 11.69313221 7.3614143 11.3125 9.6875 C11.8075 10.1825 11.8075 10.1825 12.3125 10.6875 C12.6425 7.3875 12.9725 4.0875 13.3125 0.6875 C15.2925 0.6875 17.2725 0.6875 19.3125 0.6875 C19.3125 5.3075 19.3125 9.9275 19.3125 14.6875 C10.94991339 15.99927829 10.94991339 15.99927829 7.3125 15.6875 C6.6525 15.0275 5.9925 14.3675 5.3125 13.6875 C4.9825 14.3475 4.6525 15.0075 4.3125 15.6875 C2.31295254 15.73004356 0.31208364 15.72830783 -1.6875 15.6875 C-2.6875 14.6875 -2.6875 14.6875 -2.78515625 12.40234375 C-2.77355469 11.48582031 -2.76195313 10.56929687 -2.75 9.625 C-2.74097656 8.70589844 -2.73195313 7.78679688 -2.72265625 6.83984375 C-2.71105469 6.12957031 -2.69945313 5.41929688 -2.6875 4.6875 C-3.0175 6.3375 -3.3475 7.9875 -3.6875 9.6875 C-5.3375 9.6875 -6.9875 9.6875 -8.6875 9.6875 C-8.666875 10.491875 -8.64625 11.29625 -8.625 12.125 C-8.6875 14.6875 -8.6875 14.6875 -9.6875 15.6875 C-11.54037502 15.75976502 -13.39583878 15.7713122 -15.25 15.75 C-16.26191406 15.74097656 -17.27382813 15.73195313 -18.31640625 15.72265625 C-19.49009766 15.70525391 -19.49009766 15.70525391 -20.6875 15.6875 C-21.0175 14.6975 -21.3475 13.7075 -21.6875 12.6875 C-23.0075 12.6875 -24.3275 12.6875 -25.6875 12.6875 C-25.6875 13.3475 -25.6875 14.0075 -25.6875 14.6875 C-27.6675 14.6875 -29.6475 14.6875 -31.6875 14.6875 C-31.03330901 9.61751981 -28.8328591 5.26759223 -26.6875 0.6875 C-24.3775 0.6875 -22.0675 0.6875 -19.6875 0.6875 C-18.6975 2.9975 -17.7075 5.3075 -16.6875 7.6875 C-16.3575 5.3775 -16.0275 3.0675 -15.6875 0.6875 C-10.3612186 -0.53807396 -5.42393 -0.26843857 0 0 Z " fill="#DC686D" transform="translate(34.6875,21.3125)"/>
<path d="M0 0 C2.375 0.375 2.375 0.375 5 1 C5.78375 0.835 6.5675 0.67 7.375 0.5 C10.76456 -0.14563048 13.6256478 0.40452608 17 1 C17 2.65 17 4.3 17 6 C17.66 6 18.32 6 19 6 C19 4.35 19 2.7 19 1 C19.96824707 1.00785522 19.96824707 1.00785522 20.95605469 1.01586914 C23.88735985 1.03668657 26.81864943 1.04967534 29.75 1.0625 C30.76578125 1.07087891 31.7815625 1.07925781 32.828125 1.08789062 C33.8078125 1.09111328 34.7875 1.09433594 35.796875 1.09765625 C37.14797363 1.10551147 37.14797363 1.10551147 38.52636719 1.11352539 C40.84007867 1.00733946 42.77415066 0.59711299 45 0 C47.078125 0.15625 47.078125 0.15625 49.25 0.5 C53.72669741 1.08649933 57.55368935 0.72757811 62 0 C63.83691257 3.78187881 64.15837626 5.94568308 63 10 C52 10 52 10 50.1875 9.4375 C47.27560542 8.85512108 44.89292996 9.43399196 42 10 C40 10 38 10 36 10 C36 8.02 36 6.04 36 4 C35.34 4 34.68 4 34 4 C34 5.98 34 7.96 34 10 C32.68 10 31.36 10 30 10 C30 8.02 30 6.04 30 4 C29.34 4 28.68 4 28 4 C27.67 5.65 27.34 7.3 27 9 C22.27437455 9.77153069 17.7863626 10.09385025 13 10 C12.34 10 11.68 10 11 10 C9.906875 9.814375 8.81375 9.62875 7.6875 9.4375 C4.36191842 9.04293947 2.18685234 9.13085845 -1 10 C-1.66 7.69 -2.32 5.38 -3 3 C-1.8125 1.4375 -1.8125 1.4375 0 0 Z M8 4 C9 6 9 6 9 6 Z M44 4 C45 6 45 6 45 6 Z " fill="#E23C46" transform="translate(6,38)"/>
<path d="M0 0 C3.34252724 -0.07427838 5.8035914 -0.06546953 9 1 C9.33 0.67 9.66 0.34 10 0 C12.1796875 -0.203125 12.1796875 -0.203125 14.875 -0.25 C15.75929688 -0.27578125 16.64359375 -0.3015625 17.5546875 -0.328125 C20 0 20 0 21.796875 1.328125 C23.66103405 3.91857979 23.3867669 5.90586479 23 9 C21.45493534 11.03667615 20.27853844 11.86073078 18 13 C15.14673421 12.98840136 12.34553994 12.90419182 9.5 12.75 C8.71496094 12.72292969 7.92992188 12.69585937 7.12109375 12.66796875 C4.84375 12.546875 4.84375 12.546875 1 12 C0.34 11.01 -0.32 10.02 -1 9 C-1.33 9.99 -1.66 10.98 -2 12 C-3.65 12 -5.3 12 -7 12 C-7 10.35 -7 8.7 -7 7 C-5.02 6.34 -3.04 5.68 -1 5 C-0.67 3.35 -0.34 1.7 0 0 Z M14 4 C13.67 5.32 13.34 6.64 13 8 C14.32 7.67 15.64 7.34 17 7 C16.67 6.01 16.34 5.02 16 4 C15.34 4 14.68 4 14 4 Z " fill="#E3353D" transform="translate(78,23)"/>
<path d="M0 0 C1.98 0 3.96 0 6 0 C6 4.62 6 9.24 6 14 C1.95858806 14.63394697 -1.9065307 15.12404452 -6 15 C-6.33 13.35 -6.66 11.7 -7 10 C-7.66 10 -8.32 10 -9 10 C-9.33 11.32 -9.66 12.64 -10 14 C-11.32 14 -12.64 14 -14 14 C-14 9.71 -14 5.42 -14 1 C-6.28515625 0.90234375 -6.28515625 0.90234375 -4 1 C-3.67 1.33 -3.34 1.66 -3 2 C-3.28730055 4.33944736 -3.61936779 6.6739143 -4 9 C-3.01 9.33 -2.02 9.66 -1 10 C-0.67 6.7 -0.34 3.4 0 0 Z " fill="#E52A32" transform="translate(48,22)"/>
<path d="M0 0 C1.8125 2.375 1.8125 2.375 3 5 C3.99 6.485 3.99 6.485 5 8 C5.99 8 6.98 8 8 8 C7.67 8.66 7.34 9.32 7 10 C7.99 10.33 8.98 10.66 10 11 C8.68 11.33 7.36 11.66 6 12 C6 12.66 6 13.32 6 14 C-0.207149 14.33252584 -4.29875684 13.50054525 -10 11 C-11 10 -11 10 -11.3125 6.125 C-11.26040638 3.22338554 -11.23137392 2.30541357 -9.4375 -0.0625 C-5.874103 -1.43303731 -3.6365931 -1.05791799 0 0 Z " fill="#3EC1D9" transform="translate(68,4)"/>
<path d="M0 0 C8.21869115 1.42933759 14.84149429 6.89337341 19.9375 13.375 C22.64854809 17.5184813 23.82099833 22.2360664 25 27 C23.5 25.625 23.5 25.625 22 24 C22 23.34 22 22.68 22 22 C20.35 21.67 18.7 21.34 17 21 C17 20.34 17 19.68 17 19 C15.700625 19.0309375 15.700625 19.0309375 14.375 19.0625 C9.83596158 17.63354346 8.55413537 15.32718422 6.125 11.3671875 C4.73416428 8.44063733 4.50832341 6.19589784 5 3 C3.35 2.67 1.7 2.34 0 2 C0 1.34 0 0.68 0 0 Z " fill="#26B6D8" transform="translate(113,4)"/>
<path d="M0 0 C0.350625 0.474375 0.70125 0.94875 1.0625 1.4375 C3.84163543 3.67873825 6.5144717 3.67117658 10 4 C10 4.33 10 4.66 10 5 C8.02 5 6.04 5 4 5 C4.33 5.66 4.66 6.32 5 7 C5.49787836 12.22772277 5.49787836 12.22772277 5 15 C2.875 17.0625 2.875 17.0625 0 18 C-3.3125 17.6875 -3.3125 17.6875 -6 17 C-6.19466332 15.20909747 -6.38051213 13.41723495 -6.5625 11.625 C-6.66691406 10.62726562 -6.77132812 9.62953125 -6.87890625 8.6015625 C-7 6 -7 6 -6 4 C-4.02 4 -2.04 4 0 4 C0 2.68 0 1.36 0 0 Z " fill="#37BBD7" transform="translate(76,31)"/>
<path d="M0 0 C2.31 0 4.62 0 7 0 C8.80230168 3.82989106 9.19622241 6.78121808 9 11 C9.66 11 10.32 11 11 11 C11 11.99 11 12.98 11 14 C9.02 14 7.04 14 5 14 C5 13.34 5 12.68 5 12 C3.68 12 2.36 12 1 12 C1 12.66 1 13.32 1 14 C-0.98 14 -2.96 14 -5 14 C-4.34580901 8.93001981 -2.1453591 4.58009223 0 0 Z " fill="#E23D45" transform="translate(8,22)"/>
<path d="M0 0 C5.75 -0.125 5.75 -0.125 8 1 C8.44921875 3.25 8.44921875 3.25 8.6875 6 C8.77386719 6.9075 8.86023438 7.815 8.94921875 8.75 C8.97435547 9.86375 8.97435547 9.86375 9 11 C8 12 8 12 4.5625 12.25 C3.386875 12.1675 2.21125 12.085 1 12 C0.34 11.01 -0.32 10.02 -1 9 C-1.33 9.99 -1.66 10.98 -2 12 C-3.65 12 -5.3 12 -7 12 C-7 10.35 -7 8.7 -7 7 C-5.02 6.34 -3.04 5.68 -1 5 C-0.67 3.35 -0.34 1.7 0 0 Z " fill="#D83E47" transform="translate(78,23)"/>
<path d="M0 0 C8.3984375 -0.29296875 8.3984375 -0.29296875 11 0 C13 3 13 3 12.625 5.6875 C12.41875 6.450625 12.2125 7.21375 12 8 C10.02 8.33 8.04 8.66 6 9 C6 9.99 6 10.98 6 12 C4.02 12 2.04 12 0 12 C0 8.04 0 4.08 0 0 Z " fill="#E03F46" transform="translate(102,23)"/>
<path d="M0 0 C1.98 0 3.96 0 6 0 C6 4.62 6 9.24 6 14 C1.95858806 14.63394697 -1.9065307 15.12404452 -6 15 C-4.68 14.67 -3.36 14.34 -2 14 C-1.14340865 10.91915045 -0.73058631 7.93207999 -0.4375 4.75 C-0.35371094 3.85796875 -0.26992188 2.9659375 -0.18359375 2.046875 C-0.12300781 1.37140625 -0.06242187 0.6959375 0 0 Z " fill="#E3464C" transform="translate(48,22)"/>
<path d="M0 0 C0.33 0 0.66 0 1 0 C1 3.96 1 7.92 1 12 C3.47395833 11.93489583 5.94791667 11.86979167 8.421875 11.8046875 C11.1135858 12.00860498 12.69904974 12.63448279 15 14 C15.66 13.34 16.32 12.68 17 12 C17.268125 13.0725 17.53625 14.145 17.8125 15.25 C18.71368952 18.88516577 18.71368952 18.88516577 20.5625 20.9375 C22.77212508 24.10783164 22.68171258 27.18055099 23 31 C21 29 21 29 19.75 25.6875 C17.74546859 20.80336255 14.3886159 18.67203113 10.125 15.6875 C7.73794466 14.79478648 7.73794466 14.79478648 4 15 C0.41546624 15 -1.10879553 14.92746964 -4 13 C-3.01 12.67 -2.02 12.34 -1 12 C-0.67 8.04 -0.34 4.08 0 0 Z " fill="#74CBDE" transform="translate(101,23)"/>
<path d="M0 0 C2.62594784 0.1136515 5.25011547 0.24039054 7.875 0.375 C8.62136719 0.4059375 9.36773437 0.436875 10.13671875 0.46875 C15.7734375 0.7734375 15.7734375 0.7734375 18 3 C17.75 6.0625 17.75 6.0625 17 9 C16.01 9.495 16.01 9.495 15 10 C15 7.69 15 5.38 15 3 C11.7 2.67 8.4 2.34 5 2 C5 6.29 5 10.58 5 15 C6.32 15 7.64 15 9 15 C9 13.35 9 11.7 9 10 C9.99 10.33 10.98 10.66 12 11 C12.6875 13.0625 12.6875 13.0625 13 15 C12.34 14.67 11.68 14.34 11 14 C10.67 14.66 10.34 15.32 10 16 C8.00045254 16.04254356 5.99958364 16.04080783 4 16 C3 15 3 15 2.90234375 12.71484375 C2.91394531 11.79832031 2.92554688 10.88179687 2.9375 9.9375 C2.94652344 9.01839844 2.95554687 8.09929688 2.96484375 7.15234375 C2.97644531 6.44207031 2.98804688 5.73179688 3 5 C0.69 5.33 -1.62 5.66 -4 6 C-4 5.34 -4 4.68 -4 4 C-2.68 4 -1.36 4 0 4 C0 2.68 0 1.36 0 0 Z " fill="#DF5259" transform="translate(29,21)"/>
<path d="M0 0 C0.99 0 1.98 0 3 0 C5.29013653 3.4352048 5.17842973 4.985331 5 9 C5.99 9 6.98 9 8 9 C8 8.34 8 7.68 8 7 C9.65 7.33 11.3 7.66 13 8 C13 8.99 13 9.98 13 11 C10.00519083 11.8723412 7.36424089 12.10829766 4.25 12.0625 C2.14625 12.0315625 2.14625 12.0315625 0 12 C0 8.04 0 4.08 0 0 Z " fill="#E4262F" transform="translate(56,23)"/>
<path d="M0 0 C5.28 0 10.56 0 16 0 C15.01 0.33 14.02 0.66 13 1 C13 2.98 13 4.96 13 7 C13.99 7 14.98 7 16 7 C16 7.66 16 8.32 16 9 C14.68 9 13.36 9 12 9 C12 7.02 12 5.04 12 3 C11.34 3 10.68 3 10 3 C10 4.98 10 6.96 10 9 C8.68 9 7.36 9 6 9 C6 7.02 6 5.04 6 3 C5.34 3 4.68 3 4 3 C3.67 4.32 3.34 5.64 3 7 C3 5.02 3 3.04 3 1 C2.34 1 1.68 1 1 1 C0.67 2.32 0.34 3.64 0 5 C0 3.35 0 1.7 0 0 Z " fill="#DF5058" transform="translate(30,39)"/>
<path d="M0 0 C1.32 0 2.64 0 4 0 C4 1.65 4 3.3 4 5 C4.66 5 5.32 5 6 5 C6 3.68 6 2.36 6 1 C6.66 1 7.32 1 8 1 C8 3.31 8 5.62 8 8 C3.38926889 9.29676812 -0.33840089 8.71109139 -5 8 C-5 5.69 -5 3.38 -5 1 C-4.34 1 -3.68 1 -3 1 C-3 2.32 -3 3.64 -3 5 C-2.01 5 -1.02 5 0 5 C0 3.35 0 1.7 0 0 Z " fill="#E41F2A" transform="translate(25,39)"/>
<path d="M0 0 C3 0 3 0 5 1 C4.67 1.66 4.34 2.32 4 3 C4.99 3.33 5.98 3.66 7 4 C5.68 4.33 4.36 4.66 3 5 C3 5.66 3 6.32 3 7 C-2.52677733 7.19392201 -6.75614911 6.7479503 -12 5 C-8.97357383 2.98238256 -6.4951492 1.94660291 -3 1 C-2.01 1.33 -1.02 1.66 0 2 C0 1.34 0 0.68 0 0 Z " fill="#6DCCE1" transform="translate(71,11)"/>
<path d="M0 0 C0 0.99 0 1.98 0 3 C-1.32 3 -2.64 3 -4 3 C-4 3.66 -4 4.32 -4 5 C-2.35 5 -0.7 5 1 5 C1 5.99 1 6.98 1 8 C-0.98 8 -2.96 8 -5 8 C-5 9.65 -5 11.3 -5 13 C-5.99 13 -6.98 13 -8 13 C-8 9.04 -8 5.08 -8 1 C-2.25 0 -2.25 0 0 0 Z " fill="#EA1D25" transform="translate(29,22)"/>
<path d="M0 0 C-1.875 3.875 -1.875 3.875 -3 5 C1.29 5 5.58 5 10 5 C10 5.66 10 6.32 10 7 C11.65 7 13.3 7 15 7 C15 7.66 15 8.32 15 9 C14.21625 8.835 13.4325 8.67 12.625 8.5 C5.00749344 7.44930944 -2.40363087 8.01982334 -10 9 C-8.9789114 5.32408105 -8.08564783 4.0660202 -5 1.6875 C-2 0 -2 0 0 0 Z " fill="#46B1D2" transform="translate(85,5)"/>
<path d="M0 0 C0.33 2.31 0.66 4.62 1 7 C-3.41062136 8.0257259 -5.92630576 8.03684712 -10 6 C-10 4.02 -10 2.04 -10 0 C-6.42355152 -1.2380014 -3.66305234 -0.74926071 0 0 Z M-5 2 C-4.67 2.99 -4.34 3.98 -4 5 C-3.01 5 -2.02 5 -1 5 C-0.67 4.01 -0.34 3.02 0 2 C-1.65 2 -3.3 2 -5 2 Z " fill="#E31A24" transform="translate(53,40)"/>
<path d="M0 0 C2.25 -0.3125 2.25 -0.3125 5 0 C8.55388833 3.35645009 9.55229771 6.18720039 10 11 C8.68 11 7.36 11 6 11 C6 10.34 6 9.68 6 9 C4.35 9 2.7 9 1 9 C1.99 7.02 2.98 5.04 4 3 C3.34 3 2.68 3 2 3 C2 3.66 2 4.32 2 5 C1.01 5 0.02 5 -1 5 C-0.67 3.35 -0.34 1.7 0 0 Z " fill="#E91F28" transform="translate(8,24)"/>
<path d="M0 0 C0.70125 0.08378906 1.4025 0.16757812 2.125 0.25390625 C7.99959237 0.88446712 13.1738496 0.98934629 19 0 C19.33 0.66 19.66 1.32 20 2 C17.36 2 14.72 2 12 2 C11.67 2.99 11.34 3.98 11 5 C9.68 4.01 8.36 3.02 7 2 C7 3.98 7 5.96 7 8 C7.66 8 8.32 8 9 8 C9 7.34 9 6.68 9 6 C9.66 6 10.32 6 11 6 C10.34 7.32 9.68 8.64 9 10 C8.01 10 7.02 10 6 10 C5.34 7.36 4.68 4.72 4 2 C2.68 2 1.36 2 0 2 C0 1.34 0 0.68 0 0 Z M-1 4 C0.65 4 2.3 4 4 4 C3.67 4.99 3.34 5.98 3 7 C1.68 6.67 0.36 6.34 -1 6 C-1 5.34 -1 4.68 -1 4 Z " fill="#E5475A" transform="translate(49,38)"/>
<path d="M0 0 C2 1 2 1 2.67578125 2.890625 C2.88589844 3.66921875 3.09601563 4.4478125 3.3125 5.25 C5.10613433 10.89994813 7.8394793 13.71288129 12.9375 16.75 C15.9948529 17.99789914 18.72979917 18.61069038 22 19 C22 19.33 22 19.66 22 20 C11.77225089 21.20919201 11.77225089 21.20919201 7.75 18.46484375 C3.54365707 13.75990414 0.22150866 8.47030234 -0.1875 2.0625 C-0.125625 1.381875 -0.06375 0.70125 0 0 Z " fill="#62BAD5" transform="translate(89,48)"/>
<path d="M0 0 C-0.185625 0.5775 -0.37125 1.155 -0.5625 1.75 C-1.04023546 4.20692525 -0.75729364 5.64397534 0 8 C-2.64738916 9.4606285 -3.89448334 10 -7 10 C-8.39431504 7.21136993 -8.25660094 5.07921132 -8 2 C-4.77208445 -0.1519437 -3.71599191 -0.20086443 0 0 Z " fill="#10B4D6" transform="translate(66,5)"/>
<path d="M0 0 C1.8871875 0.0309375 1.8871875 0.0309375 3.8125 0.0625 C2.8225 1.5475 2.8225 1.5475 1.8125 3.0625 C0.4925 3.0625 -0.8275 3.0625 -2.1875 3.0625 C-2.5175 4.7125 -2.8475 6.3625 -3.1875 8.0625 C-1.8675 8.3925 -0.5475 8.7225 0.8125 9.0625 C0.8125 9.3925 0.8125 9.7225 0.8125 10.0625 C-1.4975 10.0625 -3.8075 10.0625 -6.1875 10.0625 C-7.6658226 7.10585481 -7.24782783 4.32020263 -7.1875 1.0625 C-4.43671116 0.14557039 -2.82801087 -0.04636083 0 0 Z " fill="#E71F28" transform="translate(93.1875,23.9375)"/>
<path d="M0 0 C5.9610749 4.04140671 9.63612557 7.62804556 13 14 C9.62537285 13.45276317 7.91765 12.9451 5 11 C5 10.34 5 9.68 5 9 C4.34 9 3.68 9 3 9 C2.01 6.03 1.02 3.06 0 0 Z " fill="#67C4DD" transform="translate(122,8)"/>
<path d="M0 0 C3.3 0 6.6 0 10 0 C10.33 0.99 10.66 1.98 11 3 C10 4 10 4 7.4375 4.0625 C6.2309375 4.0315625 6.2309375 4.0315625 5 4 C4.67 3.01 4.34 2.02 4 1 C3.01 1 2.02 1 1 1 C1 4.96 1 8.92 1 13 C6.94 12.505 6.94 12.505 13 12 C11 14 11 14 8.3984375 14.1953125 C5.59895833 14.13020833 2.79947917 14.06510417 0 14 C0 9.38 0 4.76 0 0 Z " fill="#E07379" transform="translate(55,22)"/>
<path d="M0 0 C3.91536288 0.82824984 6.43667958 1.46632803 9.375 4.25 C11.14346803 7.24279205 11.67999643 9.55996165 12 13 C12.66 13 13.32 13 14 13 C14.33 13.99 14.66 14.98 15 16 C13.125 15.8125 13.125 15.8125 11 15 C9.75 12.4375 9.75 12.4375 9 10 C8.34 10 7.68 10 7 10 C6.855625 9.21625 6.71125 8.4325 6.5625 7.625 C6.12201075 5.03578982 6.12201075 5.03578982 5 3 C2.47266765 2.34444881 2.47266765 2.34444881 0 2 C0 1.34 0 0.68 0 0 Z " fill="#46BED8" transform="translate(113,4)"/>
<path d="M0 0 C1.98 0 3.96 0 6 0 C5.01 0.495 5.01 0.495 4 1 C4 2.32 4 3.64 4 5 C4.66 5.33 5.32 5.66 6 6 C5.34 6 4.68 6 4 6 C4 7.65 4 9.3 4 11 C2.68 11 1.36 11 0 11 C0 7.37 0 3.74 0 0 Z " fill="#E72028" transform="translate(103,24)"/>
<path d="M0 0 C1.67542976 0.28604898 3.34385343 0.61781233 5 1 C5 2.65 5 4.3 5 6 C6.32 6 7.64 6 9 6 C9 6.66 9 7.32 9 8 C5.8250906 9.9078584 3.89414789 10.1609041 0.25 9.625 C-0.54921875 9.51414062 -1.3484375 9.40328125 -2.171875 9.2890625 C-3.07679687 9.14597656 -3.07679687 9.14597656 -4 9 C-4 8.67 -4 8.34 -4 8 C-2.02 7.67 -0.04 7.34 2 7 C1.01 6.67 0.02 6.34 -1 6 C-1.042721 4.33388095 -1.04063832 2.66617115 -1 1 C-0.67 0.67 -0.34 0.34 0 0 Z M1 1 C0.67 2.32 0.34 3.64 0 5 C1.32 4.67 2.64 4.34 4 4 C3.67 3.01 3.34 2.02 3 1 C2.34 1 1.68 1 1 1 Z " fill="#E0585E" transform="translate(91,26)"/>
<path d="M0 0 C1.65 0 3.3 0 5 0 C4.67 1.98 4.34 3.96 4 6 C4.66 6.33 5.32 6.66 6 7 C5.01 7 4.02 7 3 7 C3 8.65 3 10.3 3 12 C2.01 12 1.02 12 0 12 C0 8.04 0 4.08 0 0 Z " fill="#EA1D25" transform="translate(34,23)"/>
<path d="M0 0 C0.99 0 1.98 0 3 0 C3 3.96 3 7.92 3 12 C2.01 12 1.02 12 0 12 C-0.19477739 10.37585622 -0.38059458 8.75063577 -0.5625 7.125 C-0.66691406 6.22007813 -0.77132812 5.31515625 -0.87890625 4.3828125 C-1 2 -1 2 0 0 Z " fill="#22B2D1" transform="translate(70,35)"/>
<path d="M0 0 C2.8125 -0.25 2.8125 -0.25 6 0 C7.875 2 7.875 2 9 4 C7.02 4.99 5.04 5.98 3 7 C1.68 6.01 0.36 5.02 -1 4 C-0.67 2.68 -0.34 1.36 0 0 Z " fill="#C1DCE3" transform="translate(66,20)"/>
<path d="M0 0 C0 1.98 0 3.96 0 6 C-2.31 6.33 -4.62 6.66 -7 7 C-7 5.35 -7 3.7 -7 2 C-4.35261084 0.5393715 -3.10551666 0 0 0 Z " fill="#E57F84" transform="translate(78,23)"/>
<path d="M0 0 C0.33 0 0.66 0 1 0 C1 3.96 1 7.92 1 12 C2.65 12 4.3 12 6 12 C6.33 12.66 6.66 13.32 7 14 C0.6 15.23076923 0.6 15.23076923 -2.4375 14.0625 C-2.953125 13.711875 -3.46875 13.36125 -4 13 C-3.01 12.67 -2.02 12.34 -1 12 C-0.67 8.04 -0.34 4.08 0 0 Z " fill="#9FD5E5" transform="translate(101,23)"/>
<path d="M0 0 C-1.38188453 3.21043882 -2.92421903 5.04936365 -5.625 7.25 C-6.57246094 8.03117187 -6.57246094 8.03117187 -7.5390625 8.828125 C-8.02117187 9.21484375 -8.50328125 9.6015625 -9 10 C-9.33 9.34 -9.66 8.68 -10 8 C-9.04578192 6.85073734 -8.08647955 5.70569459 -7.125 4.5625 C-6.59132813 3.92441406 -6.05765625 3.28632812 -5.5078125 2.62890625 C-3.68057607 0.65492285 -2.70796331 0 0 0 Z " fill="#4EB1D3" transform="translate(97,37)"/>
<path d="M0 0 C0.33 0 0.66 0 1 0 C1 1.98 1 3.96 1 6 C1.99 6 2.98 6 4 6 C4 5.34 4 4.68 4 4 C5.65 4.33 7.3 4.66 9 5 C9 5.99 9 6.98 9 8 C7.02 8.33 5.04 8.66 3 9 C3 8.34 3 7.68 3 7 C2.01 7 1.02 7 0 7 C0 6.01 0 5.02 0 4 C-0.66 3.67 -1.32 3.34 -2 3 C-1.34 3 -0.68 3 0 3 C0 2.01 0 1.02 0 0 Z " fill="#E1353E" transform="translate(60,26)"/>
<path d="M0 0 C4.66839378 0.61658031 4.66839378 0.61658031 7 2 C8.52843653 4.88294753 9.31308379 7.82055924 10 11 C8.5 9.625 8.5 9.625 7 8 C7 7.34 7 6.68 7 6 C6.21625 5.938125 5.4325 5.87625 4.625 5.8125 C3.75875 5.544375 2.8925 5.27625 2 5 C0.6875 2.4375 0.6875 2.4375 0 0 Z " fill="#3AB9D8" transform="translate(128,20)"/>
<path d="M0 0 C1.98 0.99 1.98 0.99 4 2 C4.33 1.34 4.66 0.68 5 0 C5.66 0 6.32 0 7 0 C7 1.98 7 3.96 7 6 C6.01 6 5.02 6 4 6 C4 5.34 4 4.68 4 4 C3.34 4 2.68 4 2 4 C2 4.66 2 5.32 2 6 C1.34 6 0.68 6 0 6 C0 4.02 0 2.04 0 0 Z " fill="#E70915" transform="translate(56,40)"/>
<path d="M0 0 C0.66 0 1.32 0 2 0 C2.28875 0.763125 2.5775 1.52625 2.875 2.3125 C3.96269013 5.15029308 3.96269013 5.15029308 6 8 C3.69 8 1.38 8 -1 8 C-1.04241723 5.66705225 -1.04092937 3.33297433 -1 1 C-0.67 0.67 -0.34 0.34 0 0 Z " fill="#DB313B" transform="translate(80,27)"/>
<path d="M0 0 C1.32 0.33 2.64 0.66 4 1 C4 5.62 4 10.24 4 15 C3.67 15 3.34 15 3 15 C3 11.7 3 8.4 3 5 C0.69 5.33 -1.62 5.66 -4 6 C-4 5.34 -4 4.68 -4 4 C-2.68 4 -1.36 4 0 4 C0 2.68 0 1.36 0 0 Z " fill="#EEA3A8" transform="translate(29,21)"/>
<path d="M0 0 C2 1 2 1 2.74609375 2.890625 C3.08833984 4.05851562 3.08833984 4.05851562 3.4375 5.25 C4.56181504 8.84666087 5.87126892 11.85758746 8 15 C3.72943339 13.25050318 2.63783868 11.09149779 0.75 7.04296875 C-0.14686826 4.59993699 -0.32251441 2.5801153 0 0 Z " fill="#6DC3DC" transform="translate(89,48)"/>
<path d="M0 0 C2.31 0 4.62 0 7 0 C7.66 2.31 8.32 4.62 9 7 C8.443125 6.360625 7.88625 5.72125 7.3125 5.0625 C4.77933439 2.80319013 3.31658576 2.36850953 0 2 C-0.33 3.32 -0.66 4.64 -1 6 C-1.33 5.34 -1.66 4.68 -2 4 C-1.0625 1.875 -1.0625 1.875 0 0 Z " fill="#E0545A" transform="translate(8,22)"/>
<path d="M0 0 C0.99 1.485 0.99 1.485 2 3 C2.99 3.33 3.98 3.66 5 4 C5.33 3.01 5.66 2.02 6 1 C6.33 1 6.66 1 7 1 C7 2.65 7 4.3 7 6 C5.0085944 6.38133299 3.00720923 6.71325582 1 7 C0 6 0 6 -0.0625 2.9375 C-0.041875 1.968125 -0.02125 0.99875 0 0 Z " fill="#E92531" transform="translate(47,41)"/>
<path d="M0 0 C3.90559061 1.26667804 6.06060687 2.31515306 8 6 C8.5287884 8.67987908 8.77237292 11.26847502 9 14 C6.79107245 11.79107245 6.0274432 9.67400178 4.86328125 6.8203125 C3.62825455 4.21613855 1.8931189 2.15423875 0 0 Z " fill="#43BEDA" transform="translate(115,40)"/>
<path d="M0 0 C0.103125 0.639375 0.20625 1.27875 0.3125 1.9375 C0.539375 2.618125 0.76625 3.29875 1 4 C1.99 4.33 2.98 4.66 4 5 C4 5.66 4 6.32 4 7 C5.32 7.33 6.64 7.66 8 8 C8 8.33 8 8.66 8 9 C5.69 9 3.38 9 1 9 C-0.4783226 6.04335481 -0.06032783 3.25770263 0 0 Z " fill="#DF2E37" transform="translate(86,25)"/>
<path d="M0 0 C0.99 0.33 1.98 0.66 3 1 C3.33 4.3 3.66 7.6 4 11 C0 9 0 9 -1 6 C-0.34 6 0.32 6 1 6 C0.67 4.02 0.34 2.04 0 0 Z " fill="#64A6C1" transform="translate(83,23)"/>
<path d="M0 0 C0.66 0.33 1.32 0.66 2 1 C1.67 1.66 1.34 2.32 1 3 C1.99 3.33 2.98 3.66 4 4 C2.68 4.33 1.36 4.66 0 5 C0 5.66 0 6.32 0 7 C-2.64 7 -5.28 7 -8 7 C-8 6.67 -8 6.34 -8 6 C-5.69 6 -3.38 6 -1 6 C-1.20625 5.38125 -1.4125 4.7625 -1.625 4.125 C-1.74875 3.42375 -1.8725 2.7225 -2 2 C-1.34 1.34 -0.68 0.68 0 0 Z " fill="#8FD2DE" transform="translate(74,11)"/>
<path d="M0 0 C2.475 0.99 2.475 0.99 5 2 C5 3.98 5 5.96 5 8 C4.67 7.01 4.34 6.02 4 5 C3.01 4.67 2.02 4.34 1 4 C0.34 3.34 -0.32 2.68 -1 2 C-1 2.66 -1 3.32 -1 4 C-1.66 3.67 -2.32 3.34 -3 3 C-2.01 2.01 -1.02 1.02 0 0 Z " fill="#E3515F" transform="translate(6,38)"/>
<path d="M0 0 C1.98 0 3.96 0 6 0 C5.67 1.98 5.34 3.96 5 6 C4.01 6 3.02 6 2 6 C2 4.35 2 2.7 2 1 C1.34 0.67 0.68 0.34 0 0 Z " fill="#E6111C" transform="translate(35,40)"/>
<path d="M0 0 C2.475 0.495 2.475 0.495 5 1 C5 2.32 5 3.64 5 5 C3.35 5 1.7 5 0 5 C0 3.35 0 1.7 0 0 Z " fill="#C9434D" transform="translate(71,30)"/>
<path d="M0 0 C0.66 0 1.32 0 2 0 C2 0.99 2 1.98 2 3 C2.99 3 3.98 3 5 3 C5 3.66 5 4.32 5 5 C3.02 5 1.04 5 -1 5 C-0.67 3.35 -0.34 1.7 0 0 Z " fill="#EA1E27" transform="translate(58,30)"/>
<path d="M0 0 C0 0.99 0 1.98 0 3 C-1.32 3 -2.64 3 -4 3 C-4 3.66 -4 4.32 -4 5 C-2.35 5 -0.7 5 1 5 C1 5.33 1 5.66 1 6 C-0.98 6 -2.96 6 -5 6 C-5 4.35 -5 2.7 -5 1 C-2 0 -2 0 0 0 Z " fill="#E32B33" transform="translate(29,22)"/>
<path d="M0 0 C1.98 0.495 1.98 0.495 4 1 C4 2.66666667 4 4.33333333 4 6 C2.68 5.67 1.36 5.34 0 5 C0.33 4.67 0.66 4.34 1 4 C0.34 3.34 -0.32 2.68 -1 2 C-0.67 1.34 -0.34 0.68 0 0 Z " fill="#E50F1C" transform="translate(5,40)"/>
<path d="M0 0 C2.96404505 2.80804268 5.44499019 5.18315774 7 9 C5.35 8.67 3.7 8.34 2 8 C1.33333333 5.33333333 0.66666667 2.66666667 0 0 Z " fill="#89D2E0" transform="translate(128,13)"/>
<path d="M0 0 C1.65 0 3.3 0 5 0 C5.33 1.32 5.66 2.64 6 4 C3 4 3 4 0 2 C0 1.34 0 0.68 0 0 Z " fill="#80C3D8" transform="translate(65,22)"/>
<path d="M0 0 C0.99 0 1.98 0 3 0 C3 0.66 3 1.32 3 2 C3.66 2 4.32 2 5 2 C4.67 2.99 4.34 3.98 4 5 C3.01 5 2.02 5 1 5 C0.67 3.35 0.34 1.7 0 0 Z " fill="#E32933" transform="translate(11,39)"/>
</svg>
